<svg xmlns="http://www.w3.org/2000/svg" width="144" height="144" viewBox="0 0 144 144">
  <rect width="144" height="144" rx="28" fill="#1a1a2e"/>
  <text x="10" y="16" font-family="-apple-system,Helvetica" font-size="11" font-weight="600" fill="#aaa">Desk Power</text>
  <text x="136" y="16" font-family="-apple-system,Helvetica" font-size="12" font-weight="700" fill="rgb(255,193,7)" text-anchor="end">47.2 W</text>
  <defs>
    <linearGradient id="sg1" x1="0" y1="0" x2="0" y2="1">
      <stop offset="15%" stop-color="rgb(255,193,7)"/>
      <stop offset="50%" stop-color="rgb(76,175,80)"/>
      <stop offset="85%" stop-color="rgb(79,195,247)"/>
    </linearGradient>
    <linearGradient id="fg1" x1="0" y1="0" x2="0" y2="1">
      <stop offset="15%" stop-color="rgb(255,193,7)" stop-opacity="0.3"/>
      <stop offset="50%" stop-color="rgb(76,175,80)" stop-opacity="0.15"/>
      <stop offset="85%" stop-color="rgb(79,195,247)" stop-opacity="0"/>
    </linearGradient>
  </defs>
  <line x1="6" y1="48" x2="138" y2="48" stroke="#333" stroke-width="0.5" stroke-dasharray="3,3"/>
  <line x1="6" y1="72" x2="138" y2="72" stroke="#333" stroke-width="0.5" stroke-dasharray="3,3"/>
  <line x1="6" y1="96" x2="138" y2="96" stroke="#333" stroke-width="0.5" stroke-dasharray="3,3"/>
  <polygon points="6,118 6,85 16,90 26,82 36,88 46,72 56,65 66,70 76,55 86,48 96,42 106,50 116,38 126,35 132,40 138,32 138,118" fill="url(#fg1)"/>
  <polyline points="6,85 16,90 26,82 36,88 46,72 56,65 66,70 76,55 86,48 96,42 106,50 116,38 126,35 132,40 138,32" fill="none" stroke="url(#sg1)" stroke-width="2" stroke-linejoin="round" stroke-linecap="round"/>
  <text x="8" y="38" font-family="-apple-system,Helvetica" font-size="9" font-weight="500" fill="rgb(255,193,7)" opacity="0.7">52.0 W</text>
  <text x="8" y="112" font-family="-apple-system,Helvetica" font-size="9" font-weight="500" fill="rgb(79,195,247)" opacity="0.7">8.3 W</text>
  <text x="72" y="134" font-family="-apple-system,Helvetica" font-size="9" fill="#666" text-anchor="middle">Last 1 hour</text>
</svg>