<svg xmlns="http://www.w3.org/2000/svg" width="200" height="100" viewBox="0 0 200 100">
  <rect width="200" height="100" rx="12" fill="#1a1a2e"/>
  <!-- Label -->
  <text x="14" y="22" font-family="-apple-system,Helvetica" font-size="13" font-weight="600" fill="#ccc">Living Room</text>
  <!-- Thermostat icon -->
  <g transform="translate(6,30)">
    <!-- Flame glow -->
    <path d="M24 8c0 0-8 10-8 18a8 8 0 0016 0c0-8-8-18-8-18z" fill="#FF6B35" opacity="0.2"/>
    <path d="M24 16c0 0-4 6-4 10a4 4 0 008 0c0-4-4-10-4-10z" fill="#FF6B35" opacity="0.4"/>
    <!-- Thermostat ring -->
    <circle cx="24" cy="24" r="10" fill="none" stroke="#FF6B35" stroke-width="2.5"/>
    <circle cx="24" cy="24" r="3" fill="#FF6B35"/>
    <!-- Tick marks -->
    <line x1="24" y1="14" x2="24" y2="10" stroke="#FF6B35" stroke-width="2" stroke-linecap="round"/>
    <line x1="24" y1="38" x2="24" y2="34" stroke="#FF6B35" stroke-width="2" stroke-linecap="round"/>
    <line x1="14" y1="24" x2="10" y2="24" stroke="#FF6B35" stroke-width="2" stroke-linecap="round"/>
    <line x1="38" y1="24" x2="34" y2="24" stroke="#FF6B35" stroke-width="2" stroke-linecap="round"/>
  </g>
  <!-- Current temperature (big) -->
  <text x="124" y="56" font-family="-apple-system,Helvetica" font-size="22" font-weight="700" fill="#FF6B35" text-anchor="middle">21.3°</text>
  <!-- Status line -->
  <text x="124" y="76" font-family="-apple-system,Helvetica" font-size="11" font-weight="500" fill="#888" text-anchor="middle">Heating → 22.0°</text>
</svg>
