<svg xmlns="http://www.w3.org/2000/svg" width="144" height="144" viewBox="0 0 144 144">
  <rect width="144" height="144" rx="28" fill="#1a1a2e"/>
  <circle cx="20" cy="18" r="5" fill="#4CAF50"/>
  <text x="30" y="22" font-family="-apple-system,Helvetica" font-size="12" font-weight="600" fill="#aaa">CPU</text>
  <text x="132" y="22" font-family="-apple-system,Helvetica" font-size="13" font-weight="700" fill="#4CAF50" text-anchor="end">32%</text>
  <defs><clipPath id="cb"><rect x="12" y="30" width="120" height="14" rx="4"/></clipPath></defs>
  <rect x="12" y="30" width="120" height="14" rx="4" fill="#333"/>
  <rect x="12" y="30" width="29" height="14" fill="#4FC3F7" clip-path="url(#cb)"/>
  <rect x="41" y="30" width="10" height="14" fill="#FF8A65" clip-path="url(#cb)"/>
  <circle cx="18" cy="56" r="4" fill="#4FC3F7"/>
  <text x="26" y="59" font-family="-apple-system,Helvetica" font-size="10" fill="#999">User 24%</text>
  <circle cx="80" cy="56" r="4" fill="#FF8A65"/>
  <text x="88" y="59" font-family="-apple-system,Helvetica" font-size="10" fill="#999">Sys 8%</text>
  <circle cx="20" cy="80" r="5" fill="#4CAF50"/>
  <text x="30" y="84" font-family="-apple-system,Helvetica" font-size="12" font-weight="600" fill="#aaa">GPU</text>
  <text x="132" y="84" font-family="-apple-system,Helvetica" font-size="13" font-weight="700" fill="#4CAF50" text-anchor="end">15%</text>
  <defs><clipPath id="gb"><rect x="12" y="92" width="120" height="14" rx="4"/></clipPath></defs>
  <rect x="12" y="92" width="120" height="14" rx="4" fill="#333"/>
  <rect x="12" y="92" width="18" height="14" fill="#4CAF50" clip-path="url(#gb)"/>
  <text x="16" y="122" font-family="-apple-system,Helvetica" font-size="10" fill="#666">Render 12%</text>
  <text x="84" y="122" font-family="-apple-system,Helvetica" font-size="10" fill="#666">Tiler 8%</text>
</svg>